<svg width="1080" height="1080" viewBox="0 0 1080 1080" fill="none" xmlns="http://www.w3.org/2000/svg">
<g filter="url(#filter0_d_217_55)">
<path fill-rule="evenodd" clip-rule="evenodd" d="M311.197 763.47C334.293 646.359 417.482 544.417 538.54 502.989C659.599 461.561 787.803 491.162 877.808 569.568C854.712 686.679 771.523 788.621 650.465 830.049C529.406 871.477 401.202 841.876 311.197 763.47Z" fill="url(#paint0_linear_217_55)"/>
</g>
<g filter="url(#filter1_d_217_55)">
<path fill-rule="evenodd" clip-rule="evenodd" d="M311.732 763.286C270.856 651.137 289.243 520.85 371.362 422.728C453.48 324.606 578.488 283.55 696.085 304.027C736.962 416.177 718.574 546.463 636.456 644.585C554.337 742.707 429.329 783.763 311.732 763.286Z" fill="url(#paint1_linear_217_55)"/>
</g>
<g filter="url(#filter2_d_217_55)">
<path fill-rule="evenodd" clip-rule="evenodd" d="M317.963 766.222C221.178 696.359 163.255 578.216 176.13 450.915C189.005 323.614 269.409 219.461 378.224 170.392C475.009 240.255 532.931 358.397 520.057 485.699C507.182 613 426.777 717.152 317.963 766.222Z" fill="url(#paint2_linear_217_55)"/>
</g>
<defs>
<filter id="filter0_d_217_55" x="131.443" y="290.693" width="1009.08" height="806.962" filterUnits="userSpaceOnUse" color-interpolation-filters="sRGB">
<feFlood flood-opacity="0" result="BackgroundImageFix"/>
<feColorMatrix in="SourceAlpha" type="matrix" values="0 0 0 0 0 0 0 0 0 0 0 0 0 0 0 0 0 0 127 0" result="hardAlpha"/>
<feOffset dx="41.4817" dy="27.6545"/>
<feGaussianBlur stdDeviation="110.618"/>
<feComposite in2="hardAlpha" operator="out"/>
<feColorMatrix type="matrix" values="0 0 0 0 0 0 0 0 0 0 0 0 0 0 0 0 0 0 0.15 0"/>
<feBlend mode="normal" in2="BackgroundImageFix" result="effect1_dropShadow_217_55"/>
<feBlend mode="normal" in="SourceGraphic" in2="effect1_dropShadow_217_55" result="shape"/>
</filter>
<filter id="filter1_d_217_55" x="111.013" y="105.314" width="868.756" height="911.993" filterUnits="userSpaceOnUse" color-interpolation-filters="sRGB">
<feFlood flood-opacity="0" result="BackgroundImageFix"/>
<feColorMatrix in="SourceAlpha" type="matrix" values="0 0 0 0 0 0 0 0 0 0 0 0 0 0 0 0 0 0 127 0" result="hardAlpha"/>
<feOffset dx="41.4817" dy="27.6545"/>
<feGaussianBlur stdDeviation="110.618"/>
<feComposite in2="hardAlpha" operator="out"/>
<feColorMatrix type="matrix" values="0 0 0 0 0 0 0 0 0 0 0 0 0 0 0 0 0 0 0.15 0"/>
<feBlend mode="normal" in2="BackgroundImageFix" result="effect1_dropShadow_217_55"/>
<feBlend mode="normal" in="SourceGraphic" in2="effect1_dropShadow_217_55" result="shape"/>
</filter>
<filter id="filter2_d_217_55" x="-5.40472" y="-23.1895" width="789.96" height="1038.3" filterUnits="userSpaceOnUse" color-interpolation-filters="sRGB">
<feFlood flood-opacity="0" result="BackgroundImageFix"/>
<feColorMatrix in="SourceAlpha" type="matrix" values="0 0 0 0 0 0 0 0 0 0 0 0 0 0 0 0 0 0 127 0" result="hardAlpha"/>
<feOffset dx="41.4817" dy="27.6545"/>
<feGaussianBlur stdDeviation="110.618"/>
<feComposite in2="hardAlpha" operator="out"/>
<feColorMatrix type="matrix" values="0 0 0 0 0 0 0 0 0 0 0 0 0 0 0 0 0 0 0.15 0"/>
<feBlend mode="normal" in2="BackgroundImageFix" result="effect1_dropShadow_217_55"/>
<feBlend mode="normal" in="SourceGraphic" in2="effect1_dropShadow_217_55" result="shape"/>
</filter>
<linearGradient id="paint0_linear_217_55" x1="289.629" y1="700.445" x2="737.456" y2="395.11" gradientUnits="userSpaceOnUse">
<stop stop-color="#01263B"/>
<stop offset="1" stop-color="#0369A1"/>
</linearGradient>
<linearGradient id="paint1_linear_217_55" x1="696.085" y1="304.027" x2="311.732" y2="763.286" gradientUnits="userSpaceOnUse">
<stop stop-color="#0284C7"/>
<stop offset="1" stop-color="#014061"/>
</linearGradient>
<linearGradient id="paint2_linear_217_55" x1="378.224" y1="170.392" x2="317.963" y2="766.222" gradientUnits="userSpaceOnUse">
<stop stop-color="#0EA5E9"/>
<stop offset="1" stop-color="#085D83"/>
</linearGradient>
</defs>
</svg>
