<svg width="1173" height="1367" viewBox="0 0 1173 1367" fill="none" xmlns="http://www.w3.org/2000/svg">
<path d="M645.346 1317.97C606.115 1299.66 557.404 1280.7 499.212 1261.09C441.673 1241.48 381.192 1228.08 317.769 1220.89C299.462 1218.92 281.481 1217.94 263.827 1217.94C220.019 1217.94 174.25 1225.79 126.519 1241.48C78.7885 1256.52 37.5962 1292.8 2.94231 1350.33L0 1297.38V1282.67C0 1250.63 5.55769 1210.75 16.6731 1163.03C28.4423 1114.65 54.5962 1063.98 95.1346 1011.03C135.673 957.423 197.135 910.68 279.519 870.801C262.519 888.452 248.135 909.372 236.365 933.561C224.596 957.096 215.115 980.304 207.923 1003.19C201.385 1026.07 197.135 1045.03 195.173 1060.06C194.519 1065.29 194.192 1069.54 194.192 1072.81C194.192 1077.39 194.846 1079.67 196.154 1079.67H197.135C227.212 1059.41 259.904 1045.68 295.212 1038.49C325.288 1033.26 354.385 1030.64 382.5 1030.64C388.385 1030.64 400.808 1030.97 419.769 1031.62C438.731 1032.28 459 1034.57 480.577 1038.49L512.942 1044.37C436.442 995.994 384.135 942.06 356.019 882.568C329.865 826.999 316.788 767.834 316.788 705.074C316.788 700.498 317.115 680.231 317.769 644.275C318.423 608.318 324.635 553.73 336.404 480.509C340.327 456.974 343.596 433.439 346.211 409.904C348.173 390.291 349.154 371.332 349.154 353.027C349.154 259.54 325.288 184.359 277.558 127.482C229.827 71.2592 161.173 43.1478 71.5962 43.1478C52.6346 43.1478 32.6923 44.4553 11.7692 47.0703C85 15.6901 153.654 0 217.731 0C266.769 0 326.923 15.0363 398.192 45.109C470.115 75.1817 523.077 147.422 557.077 261.829C568.192 234.371 573.75 206.259 573.75 177.494C573.75 168.995 572.115 153.305 568.846 130.424C566.231 107.543 551.192 82.373 523.731 54.9153C516.538 48.3778 510 42.8209 504.115 38.2446C510.654 41.5134 518.5 45.109 527.654 49.0316C566.885 67.9904 615.269 87.2762 672.808 106.889C731 126.501 791.808 139.903 855.231 147.095C873.538 149.056 891.192 150.037 908.192 150.037C952.654 150.037 998.75 142.192 1046.48 126.501C1094.21 110.811 1135.4 74.528 1170.06 17.6514L1173 69.6248V84.3343C1173 117.022 1167.12 157.555 1155.35 205.933C1144.23 253.657 1118.4 304.323 1077.87 357.93C1037.33 410.884 975.865 456.974 893.481 496.199C910.481 479.202 924.865 458.609 936.635 434.42C949.058 410.231 958.538 386.696 965.077 363.814C971.615 340.933 975.865 322.301 977.827 307.918C978.481 302.034 978.808 297.458 978.808 294.189C978.808 290.267 978.481 288.306 977.827 288.306H976.846C946.769 308.572 913.75 321.974 877.788 328.511C847.058 334.395 817.961 337.337 790.5 337.337C785.269 337.337 772.846 337.01 753.231 336.357C734.269 335.703 714 333.415 692.423 329.492L660.058 323.608C737.212 371.332 789.519 424.94 816.981 484.432C843.135 540.001 856.212 599.166 856.212 661.926C856.212 666.502 855.885 687.096 855.231 723.706C854.577 759.662 848.365 813.924 836.596 886.491C833.327 910.026 830.058 933.888 826.788 958.077C824.827 977.689 823.846 996.321 823.846 1013.97C823.846 1108.11 848.038 1183.62 896.423 1240.5C942.846 1296.07 1010.52 1323.85 1099.44 1323.85C1119.06 1323.85 1139.65 1322.54 1161.23 1319.93C1087.35 1351.31 1018.37 1367 954.289 1367C905.904 1367 846.077 1351.96 774.808 1321.89C703.538 1291.82 650.577 1219.58 615.923 1105.17C604.808 1133.28 599.25 1161.39 599.25 1189.51C599.25 1198 600.558 1213.69 603.173 1236.58C606.442 1259.46 622.135 1284.95 650.25 1313.07C656.788 1318.95 663 1324.51 668.885 1329.74L645.346 1317.97ZM559.038 519.735C555.769 535.425 551.846 551.115 547.269 566.805C544.654 577.265 543.346 589.033 543.346 602.108C543.346 636.103 549.558 675.655 561.981 720.764C575.058 765.219 592.385 807.386 613.962 847.265C617.231 832.229 621.154 816.539 625.731 800.195C628.346 790.389 629.654 778.621 629.654 764.892C629.654 730.897 623.115 691.672 610.038 647.217C597.615 602.761 580.615 560.267 559.038 519.735Z" fill="#FB2C36"/>
</svg>
