<svg width="100" height="117" viewBox="0 0 100 117" fill="none" xmlns="http://www.w3.org/2000/svg">
<path d="M55.0167 112.803C51.6722 111.237 47.5195 109.614 42.5585 107.935C37.6533 106.257 32.4972 105.11 27.0903 104.494C25.5295 104.326 23.9967 104.242 22.4916 104.242C18.757 104.242 14.8551 104.914 10.786 106.257C6.71683 107.544 3.20513 110.649 0.250836 115.573L0 111.041V109.782C0 107.04 0.473802 103.627 1.4214 99.5423C2.42475 95.4017 4.6544 91.0653 8.11037 86.533C11.5663 81.9448 16.806 77.944 23.8294 74.5308C22.3802 76.0416 21.1538 77.8321 20.1505 79.9024C19.1472 81.9168 18.3389 83.9032 17.7258 85.8615C17.1683 87.8199 16.806 89.4426 16.6388 90.7296C16.5831 91.1772 16.5552 91.5409 16.5552 91.8207C16.5552 92.2123 16.6109 92.4082 16.7224 92.4082H16.806C19.3701 90.6736 22.1572 89.4986 25.1672 88.8831C27.7313 88.4354 30.2118 88.2116 32.6087 88.2116C33.1104 88.2116 34.1695 88.2396 35.786 88.2956C37.4025 88.3515 39.1304 88.5473 40.9699 88.8831L43.7291 89.3867C37.2074 85.2461 32.748 80.6298 30.3512 75.538C28.1215 70.7819 27.0067 65.7181 27.0067 60.3465C27.0067 59.9548 27.0346 58.2202 27.0903 55.1428C27.146 52.0653 27.6756 47.3931 28.6789 41.1263C29.0134 39.1119 29.2921 37.0976 29.515 35.0832C29.6823 33.4046 29.7659 31.7819 29.7659 30.2152C29.7659 22.2138 27.7313 15.7791 23.6622 10.911C19.5931 6.099 13.7402 3.69297 6.10368 3.69297C4.48718 3.69297 2.78707 3.80488 1.00334 4.02869C7.24638 1.3429 13.0992 0 18.5619 0C22.7425 0 27.8707 1.28694 33.9465 3.86083C40.078 6.43472 44.5931 12.6176 47.4916 22.4096C48.4392 20.0595 48.913 17.6535 48.913 15.1915C48.913 14.4641 48.7737 13.1212 48.495 11.1628C48.272 9.20445 46.99 7.05022 44.6488 4.70014C44.0357 4.1406 43.4783 3.66499 42.9766 3.27331C43.534 3.55308 44.2029 3.86083 44.9833 4.19656C48.3278 5.81923 52.4526 7.46987 57.3579 9.14849C62.3188 10.8271 67.5028 11.9742 72.9097 12.5897C74.4705 12.7575 75.9755 12.8415 77.4247 12.8415C81.2152 12.8415 85.1449 12.17 89.214 10.8271C93.2832 9.48422 96.7949 6.37877 99.7492 1.51076L100 5.95911V7.21808C100 10.0158 99.4983 13.4849 98.495 17.6255C97.5474 21.7102 95.3456 26.0466 91.8896 30.6349C88.4337 35.1671 83.194 39.1119 76.1706 42.4692C77.6198 41.0143 78.8462 39.2518 79.8495 37.1815C80.9086 35.1112 81.7168 33.0968 82.2742 31.1385C82.8317 29.1801 83.194 27.5854 83.3612 26.3544C83.4169 25.8508 83.4448 25.4591 83.4448 25.1793C83.4448 24.8436 83.4169 24.6758 83.3612 24.6758H83.2776C80.7135 26.4103 77.8986 27.5574 74.8328 28.1169C72.2129 28.6205 69.7324 28.8723 67.3913 28.8723C66.9454 28.8723 65.8863 28.8443 64.214 28.7884C62.5975 28.7324 60.8696 28.5366 59.0301 28.2009L56.2709 27.6973C62.8484 31.7819 67.3077 36.3702 69.6488 41.462C71.8785 46.2181 72.9933 51.2819 72.9933 56.6535C72.9933 57.0452 72.9654 58.8077 72.9097 61.9412C72.854 65.0187 72.3244 69.6628 71.3211 75.8737C71.0424 77.8881 70.7637 79.9304 70.4849 82.0007C70.3177 83.6793 70.2341 85.274 70.2341 86.7848C70.2341 94.8422 72.2965 101.305 76.4214 106.173C80.379 110.929 86.1483 113.307 93.7291 113.307C95.4013 113.307 97.1572 113.195 98.9967 112.971C92.6979 115.657 86.8172 117 81.3545 117C77.2297 117 72.1293 115.713 66.0535 113.139C59.9777 110.565 55.4627 104.382 52.5084 94.5904C51.5608 96.9964 51.087 99.4024 51.087 101.808C51.087 102.536 51.1984 103.879 51.4214 105.837C51.7001 107.796 53.0379 109.978 55.4348 112.384C55.9922 112.887 56.5217 113.363 57.0234 113.811L55.0167 112.803ZM47.6589 44.4835C47.3802 45.8264 47.0457 47.1693 46.6555 48.5122C46.4326 49.4075 46.3211 50.4146 46.3211 51.5337C46.3211 54.4433 46.8506 57.8286 47.9097 61.6894C49.0245 65.4943 50.5017 69.1033 52.3411 72.5165C52.6198 71.2296 52.9543 69.8867 53.3445 68.4878C53.5674 67.6485 53.6789 66.6413 53.6789 65.4663C53.6789 62.5567 53.1215 59.1994 52.0067 55.3945C50.9476 51.5897 49.4983 47.9527 47.6589 44.4835Z" fill="white"/>
</svg>
