<svg width="570" height="664" viewBox="0 0 570 664" fill="none" xmlns="http://www.w3.org/2000/svg">
<path d="M313.441 640.006C294.387 631.117 270.728 621.911 242.464 612.387C214.518 602.863 185.143 596.355 154.339 592.863C145.447 591.911 136.714 591.434 128.139 591.434C106.862 591.434 84.6323 595.244 61.4497 602.863C38.2671 610.165 18.2603 627.784 1.42906 655.721L0 630.006V622.863C0 607.308 2.69934 587.942 8.09802 564.767C13.8143 541.275 26.5171 516.672 46.2064 490.957C65.8957 464.925 95.7473 442.227 135.761 422.861C127.504 431.433 120.518 441.592 114.801 453.338C109.085 464.766 104.48 476.036 100.987 487.148C97.8115 498.259 95.7472 507.465 94.7945 514.767C94.477 517.307 94.3182 519.37 94.3182 520.957C94.3182 523.18 94.6358 524.291 95.2709 524.291H95.7472C110.355 514.449 126.234 507.783 143.383 504.291C157.991 501.751 172.123 500.481 185.778 500.481C188.636 500.481 194.67 500.64 203.88 500.957C213.089 501.275 222.934 502.386 233.414 504.291L249.133 507.148C211.978 483.656 186.572 457.465 172.917 428.576C160.214 401.591 153.862 372.861 153.862 342.384C153.862 340.162 154.021 330.321 154.339 312.86C154.656 295.4 157.673 268.892 163.39 233.336C165.295 221.907 166.883 210.478 168.153 199.05C169.106 189.526 169.582 180.319 169.582 171.43C169.582 126.033 157.991 89.5247 134.808 61.9054C111.626 34.6035 78.2809 20.9526 34.7739 20.9526C25.5644 20.9526 15.8785 21.5875 5.71625 22.8574C41.2841 7.61912 74.6289 0 105.751 0C129.568 0 158.785 7.30166 193.4 21.905C228.333 36.5083 254.056 71.588 270.569 127.144C275.968 113.811 278.667 100.16 278.667 86.1913C278.667 82.0643 277.873 74.4452 276.286 63.334C275.015 52.2227 267.711 40.0004 254.373 26.6669C250.88 23.4923 247.704 20.7939 244.846 18.5716C248.022 20.1589 251.833 21.905 256.279 23.8098C275.333 33.0162 298.833 42.3814 326.779 51.9053C355.043 61.4292 384.577 67.9372 415.381 71.4293C424.273 72.3817 432.847 72.8579 441.104 72.8579C462.699 72.8579 485.088 69.0483 508.27 61.4292C531.453 53.8101 551.46 36.1908 568.291 8.57151L569.72 33.8099V40.9528C569.72 56.826 566.862 76.5087 561.146 100.001C555.747 123.176 543.203 147.779 523.514 173.811C503.824 199.526 473.973 221.907 433.959 240.955C442.216 232.701 449.202 222.701 454.919 210.954C460.952 199.208 465.557 187.78 468.733 176.668C471.908 165.557 473.973 156.509 474.925 149.525C475.243 146.668 475.402 144.446 475.402 142.859C475.402 140.954 475.243 140.001 474.925 140.001H474.449C459.841 149.843 443.804 156.351 426.337 159.525C411.411 162.383 397.28 163.811 383.942 163.811C381.401 163.811 375.367 163.652 365.84 163.335C356.631 163.017 346.786 161.906 336.306 160.002L320.587 157.144C358.06 180.319 383.465 206.351 396.803 235.24C409.506 262.225 415.857 290.955 415.857 321.432C415.857 323.654 415.699 333.654 415.381 351.432C415.064 368.893 412.047 395.242 406.33 430.48C404.743 441.909 403.155 453.496 401.567 465.243C400.614 474.767 400.138 483.814 400.138 492.386C400.138 538.101 411.888 574.768 435.388 602.387C457.935 629.371 490.804 642.863 533.993 642.863C543.52 642.863 553.524 642.229 564.004 640.959C528.118 656.197 494.615 663.816 463.493 663.816C439.993 663.816 410.935 656.514 376.32 641.911C341.705 627.308 315.982 592.228 299.151 536.672C293.752 550.323 291.053 563.974 291.053 577.625C291.053 581.752 291.688 589.371 292.958 600.482C294.546 611.593 302.168 623.974 315.823 637.625C318.999 640.482 322.016 643.181 324.874 645.721L313.441 640.006ZM271.522 252.383C269.934 260.003 268.029 267.622 265.806 275.241C264.536 280.32 263.9 286.035 263.9 292.384C263.9 308.892 266.917 328.098 272.951 350.003C279.302 371.591 287.718 392.067 298.198 411.433C299.786 404.131 301.691 396.512 303.914 388.575C305.184 383.813 305.82 378.099 305.82 371.432C305.82 354.924 302.644 335.876 296.292 314.289C290.259 292.701 282.002 272.066 271.522 252.383Z" fill="#FB2C36"/>
</svg>
